<?xml version="1.0" encoding="UTF-8"?>
<svg version="1.1" xmlns="http://www.w3.org/2000/svg" width="1863" height="391">
<path d="M0 0 C14.11047171 10.01652441 19.86070649 25.21809977 22.83203125 41.74609375 C26.59361942 65.2253547 24.38705095 88.26266357 21.83203125 111.74609375 C21.6591502 113.34146816 21.48629944 114.93684585 21.31347656 116.53222656 C21.13479652 118.17903981 20.95608532 119.82584968 20.77734375 121.47265625 C20.688479 122.29224319 20.59961426 123.11183014 20.50805664 123.95625305 C20.07450323 127.9492711 19.63712986 131.94177974 19.19042969 135.93334961 C17.57254437 150.47807129 16.59586074 164.92252173 16.58203125 179.55859375 C16.58102417 180.30655212 16.58001709 181.0545105 16.57897949 181.82513428 C16.5889241 192.7691799 17.09823959 203.0980901 19.83203125 213.74609375 C20.18451948 215.17164642 20.53604715 216.59743687 20.88671875 218.0234375 C21.55188241 220.7124612 22.24643328 223.38656022 22.96484375 226.0625 C27.18749562 243.99925995 28.01181991 268.07961484 19.25390625 284.75 C14.19795324 292.57306243 8.86968237 296.57895018 -0.16796875 298.74609375 C-14.18622936 299.93617762 -28.30995995 297.73774737 -39.578125 288.84375 C-50.40714027 278.84634525 -55.49868821 264.23464035 -56.3449707 249.70776367 C-57.08578675 210.64521218 -47.68204939 174.96294346 -34.58984375 138.3203125 C-29.77951887 124.59929545 -27.91887929 111.92653959 -27.85546875 97.43359375 C-27.84713013 95.79511475 -27.84713013 95.79511475 -27.83862305 94.12353516 C-27.81093803 87.65294461 -27.81093803 87.65294461 -30.16796875 81.74609375 C-35.00353965 82.20244527 -37.24827889 84.21762384 -40.73046875 87.49609375 C-41.2507666 87.98561523 -41.77106445 88.47513672 -42.30712891 88.97949219 C-48.82381964 95.19613667 -54.86261978 101.88615317 -60.83203125 108.62451172 C-75.06627302 124.68271883 -90.59329348 137.19016481 -112.62109375 140.06640625 C-133.35030249 141.09600271 -154.04570696 128.42110577 -168.91796875 115.05859375 C-174.77311903 109.630951 -179.3942545 103.44407288 -183.92578125 96.8984375 C-186.26061956 93.54065442 -186.26061956 93.54065442 -189.16796875 90.74609375 C-191.79367579 90.49539462 -191.79367579 90.49539462 -194.16796875 90.74609375 C-196.57520881 99.28982281 -195.20617951 107.54447358 -193.140625 115.99609375 C-192.92208359 116.90109116 -192.70354218 117.80608856 -192.4783783 118.73851013 C-189.18849557 132.05123033 -185.13693925 145.16208923 -181.18188477 158.28881836 C-154.92558655 245.648002 -154.92558655 245.648002 -170.95703125 281.5078125 C-177.21795939 293.08043129 -186.9011336 298.72587046 -199.16796875 302.74609375 C-209.1350935 305.0403557 -218.01153739 303.47565528 -226.79296875 298.24609375 C-236.19268198 291.50354327 -241.92924791 280.45223035 -244.765625 269.421875 C-247.16661553 253.45412246 -243.71997004 238.74914724 -239.796875 223.38671875 C-237.46830371 214.13495415 -236.96066023 205.40196592 -236.91796875 195.87109375 C-236.89734375 194.78957031 -236.87671875 193.70804688 -236.85546875 192.59375 C-236.76413121 172.33964992 -240.44608917 152.10418276 -243.64306641 132.16281128 C-247.66991768 106.91000555 -251.36455854 82.04660916 -251.54296875 56.43359375 C-251.55118652 55.7054245 -251.5594043 54.97725525 -251.56787109 54.22702026 C-251.69714596 38.86274639 -250.39865692 22.69150862 -240.19921875 10.3671875 C-233.82399997 4.0959125 -226.41266428 1.49533597 -217.66796875 0.24609375 C-194.43206851 3.56550807 -177.42759839 22.70647843 -164.00927734 40.51245117 C-161.40356435 43.99731663 -158.81332477 47.49356321 -156.22216797 50.98925781 C-152.73896014 55.66389327 -149.20411706 60.29894885 -145.66796875 64.93359375 C-144.69911743 66.20553589 -144.69911743 66.20553589 -143.71069336 67.50317383 C-141.86699549 69.9204772 -140.01837436 72.33392245 -138.16796875 74.74609375 C-137.54083984 75.5673877 -136.91371094 76.38868164 -136.26757812 77.23486328 C-135.65720703 78.02876465 -135.04683594 78.82266602 -134.41796875 79.640625 C-133.8765625 80.34678955 -133.33515625 81.0529541 -132.77734375 81.78051758 C-129.28443718 86.04650525 -125.99229041 89.07041906 -120.79296875 90.99609375 C-109.25828231 90.20059813 -98.96072982 76.33370353 -91.75878906 68.14355469 C-89.8619246 65.8969138 -88.03135524 63.60179125 -86.2109375 61.29296875 C-84.09996753 58.66131976 -81.88208361 56.17279574 -79.60546875 53.68359375 C-76.00326022 49.72676365 -72.64006771 45.64224015 -69.328125 41.44140625 C-66.39168934 37.77749919 -63.35063553 34.20723968 -60.30297852 30.63574219 C-57.37852856 27.20161823 -54.53865195 23.71417191 -51.73046875 20.18359375 C-38.67643805 4.20527301 -21.57616927 -12.4791898 0 0 Z " fill="#88A9C3" transform="translate(1571.16796875,80.25390625)"/>
<path d="M0 0 C0.91378418 0.19787109 1.82756836 0.39574219 2.76904297 0.59960938 C19.34592387 4.31071693 36.79830372 9.42614817 47 24 C52.5705761 34.12524166 53.93676162 46.54125194 51.3515625 57.83203125 C47.06702058 68.28704592 37.86234625 75.77768089 27.85546875 80.4765625 C6.20089303 89.26169286 -16.50599626 87.6963839 -37.82421875 78.73828125 C-72.04362782 64.3716072 -116.59801659 51.26765789 -152.8828125 65.54296875 C-164.81684022 71.12115464 -172.06676351 81.71718777 -177 93.625 C-180.13079703 102.60714872 -181.21387417 112.63847492 -179 122 C-178.06066425 123.9611593 -178.06066425 123.9611593 -176 125 C-168.62381927 125.91777364 -162.21832794 123.48067127 -155.25 121.25 C-128.79008908 113.08291714 -96.89666753 105.44096137 -70.5625 117.8125 C-58.8306432 124.16920328 -52.79004326 132.40859783 -48.76171875 145.10546875 C-45.70618907 156.71648153 -46.40474175 166.29319489 -52.0390625 176.96875 C-58.6459044 186.34620301 -72.91457086 190.54368123 -83.62109375 192.52734375 C-84.73613281 192.68332031 -85.85117188 192.83929688 -87 193 C-87.95181152 193.13704346 -87.95181152 193.13704346 -88.92285156 193.27685547 C-108.04755256 195.74782674 -127.84818263 194.21779896 -146.87890625 191.75390625 C-151.24557218 191.2032606 -155.61196597 190.68124846 -159.9921875 190.25 C-161.03358887 190.14300781 -162.07499023 190.03601563 -163.14794922 189.92578125 C-167.19085769 190.03098962 -169.47001812 191.44642994 -172.4140625 194.1171875 C-178.12271484 200.89445457 -179.17018529 207.96429891 -179.02734375 216.6171875 C-179.01467496 218.12760169 -179.00231573 219.6380185 -178.99023438 221.1484375 C-178.96569439 223.49552908 -178.93797 225.84247771 -178.90405273 228.18945312 C-178.63735917 247.92897704 -179.65848938 269.78539053 -193.15234375 285.5078125 C-200.67676006 292.898082 -210.3905525 297.42130286 -221 298 C-222.33611328 298.0928125 -222.33611328 298.0928125 -223.69921875 298.1875 C-234.38883918 298.62548701 -242.78825943 295.80605905 -251 288.9140625 C-261.29795355 279.05859914 -264.97523823 266.83470451 -265.3125 252.875 C-265.05562283 236.94861526 -260.76697969 222.67551071 -253.0625 208.75 C-239.17121113 183.47529952 -238.09859994 157.82174892 -243 130 C-247.98819944 100.61497057 -245.38087711 69.87188947 -227.87109375 44.97265625 C-207.91317837 19.51649585 -179.00964177 8.82506786 -148.125 3.9375 C-146.98777496 3.75231308 -146.98777496 3.75231308 -145.82757568 3.56338501 C-133.96284192 1.63356036 -122.06825561 0.0440023 -110.125 -1.3125 C-109.40991272 -1.39372101 -108.69482544 -1.47494202 -107.95806885 -1.55862427 C-103.30889618 -2.0798389 -98.65703749 -2.55438377 -94 -3 C-92.93378418 -3.1038501 -91.86756836 -3.2077002 -90.76904297 -3.31469727 C-61.10712747 -5.82378727 -29.17432441 -6.42692749 0 0 Z " fill="#88A9C3" transform="translate(270,86)"/>
<path d="M0 0 C16.0491142 9.49229661 22.04017488 30.58925096 26.62890625 47.45898438 C28.15199214 53.5830589 29.30052591 59.77749531 30.47265625 65.9765625 C37.5512328 103.11103691 53.97158688 137.65223107 83.47265625 162.2265625 C104.10660817 180.07887503 118.40858638 211.00764601 121.47265625 237.8515625 C123.05981264 268.06694625 123.05981264 268.06694625 114.28515625 279.3515625 C110.53050579 283.21028643 106.55401458 285.20682982 101.47265625 286.8515625 C100.47685547 287.18800781 100.47685547 287.18800781 99.4609375 287.53125 C86.6010432 291.10752537 72.87011931 289.53839749 61.28515625 283.1640625 C48.9231878 275.19917487 42.27801323 261.27645437 39.16015625 247.2265625 C37.54278144 239.4416098 36.52050449 231.54234281 35.6862793 223.63818359 C34.34214255 212.13561858 30.23138506 203.56856457 21.47265625 195.8515625 C6.95491471 186.27030185 -11.04264836 186.83792904 -27.52734375 189.8515625 C-44.36807619 193.39405137 -57.39809569 203.84205124 -66.74121094 218.08642578 C-67.33063477 218.9989209 -67.92005859 219.91141602 -68.52734375 220.8515625 C-69.07253662 221.67325928 -69.61772949 222.49495605 -70.17944336 223.34155273 C-75.67744818 232.11625072 -78.51811478 241.24192893 -81.46484375 251.1015625 C-93.32545314 290.72852526 -93.32545314 290.72852526 -111.23046875 300.79296875 C-118.62454595 304.20078324 -126.35786097 303.41850082 -133.91796875 300.8828125 C-143.50236251 297.09496826 -151.73424835 292.1073443 -156.6484375 282.70703125 C-163.49822213 265.56618262 -157.41554782 246.27622517 -150.5859375 230.12890625 C-142.55427962 212.09080991 -131.69179027 195.49810719 -120.85327148 179.05810547 C-115.68248814 171.18068217 -110.90324802 163.19544776 -106.52734375 154.8515625 C-106.00140625 153.87703125 -105.47546875 152.9025 -104.93359375 151.8984375 C-94.57954751 131.30049446 -90.29252802 107.3827704 -85.17016602 85.07885742 C-70.32322128 20.71178153 -70.32322128 20.71178153 -45.52734375 2.8515625 C-31.15635367 -5.45831318 -15.46171558 -7.02588003 0 0 Z M-23.52734375 75.8515625 C-26.77253406 77.54497796 -26.77253406 77.54497796 -27.32348633 80.68286133 C-27.61968872 82.47759888 -27.61968872 82.47759888 -27.921875 84.30859375 C-28.15414159 85.65235653 -28.38648522 86.99610599 -28.61889648 88.33984375 C-28.73611053 89.0457666 -28.85332458 89.75168945 -28.97409058 90.47900391 C-31.94471475 108.22591176 -35.69803565 125.18801408 -43.31933594 141.57299805 C-45.63837785 146.70237022 -46.56170539 150.30362279 -45.52734375 155.8515625 C-44.13268238 157.95066528 -44.13268238 157.95066528 -41.52734375 158.8515625 C-38.39816129 158.35705334 -35.50010471 157.23552 -32.52734375 156.1640625 C-24.26685572 153.39197899 -16.49567431 151.99514718 -7.80078125 151.52270508 C-5.70186495 151.39045802 -3.61169694 151.13158167 -1.52734375 150.8515625 C-0.53734375 149.3665625 -0.53734375 149.3665625 0.47265625 147.8515625 C-0.21378124 145.27203506 -0.99702131 142.950389 -1.96484375 140.4765625 C-2.53801783 138.92765953 -3.10956233 137.37815281 -3.6796875 135.828125 C-3.98374512 135.0124707 -4.28780273 134.19681641 -4.60107422 133.35644531 C-9.83404628 119.20507648 -13.90240582 104.97258343 -17.265625 90.265625 C-17.68445378 88.46053193 -18.10484949 86.65580116 -18.52734375 84.8515625 C-18.69411621 84.12291992 -18.86088867 83.39427734 -19.03271484 82.64355469 C-19.95545223 78.96588194 -20.23261469 78.04804854 -23.52734375 75.8515625 Z " fill="#88A9C3" transform="translate(1163.52734375,86.1484375)"/>
<path d="M0 0 C5.69870847 3.69069899 10.0338056 8.91308626 13 15 C13.79525384 18.87177575 13.79881634 22.55991917 13.6875 26.5 C13.70973633 27.97146484 13.70973633 27.97146484 13.73242188 29.47265625 C13.62527237 38.9396303 10.04150853 45.29153423 3.625 52.125 C2.84640625 52.9603125 2.0678125 53.795625 1.265625 54.65625 C-1.23645557 57.24460921 -3.77692904 59.78851998 -6.33984375 62.31640625 C-9.38576248 65.40532619 -12.17882047 68.70683606 -15 72 C-15.86367187 72.99773437 -16.72734375 73.99546875 -17.6171875 75.0234375 C-20.76485346 78.6653254 -23.88458711 82.3305157 -27 86 C-27.87446777 87.02504639 -27.87446777 87.02504639 -28.76660156 88.07080078 C-47.11597394 109.64398005 -58.69184605 128.80986396 -57 158 C-56.22466424 165.4082901 -54.87243902 172.73385335 -53.5625 180.0625 C-53.06951129 182.89845816 -52.58105495 185.73514206 -52.09544373 188.57237244 C-51.79570426 190.3152729 -51.49114764 192.05735556 -51.18055725 193.7983551 C-45.88882416 223.9768519 -46.25274414 261.16632868 -63 288 C-69.230564 296.54306179 -76.39249684 302.29401621 -87 304 C-99.59258936 305.27893486 -112.25561214 301.1435926 -122.09765625 293.3359375 C-129.89950484 286.08071524 -132.47112863 277.32069318 -133.22265625 266.91796875 C-133.73664731 247.72152014 -128.2143062 229.2012168 -123.48112488 210.78199768 C-121.96621737 204.88543235 -120.49220188 198.98026982 -119.0625 193.0625 C-118.86350098 192.26021973 -118.66450195 191.45793945 -118.45947266 190.63134766 C-114.39996641 173.75462702 -114.41381768 155.51463637 -123 140 C-125.25843885 136.91213449 -127.77456912 134.19973074 -130.48779297 131.50634766 C-132.2643914 129.73663304 -134.00797111 127.93668333 -135.75390625 126.13671875 C-142.40560614 119.33010532 -149.08823877 112.80910904 -156.578125 106.92578125 C-158.87790346 105.09708644 -161.02911205 103.17954602 -163.1875 101.1875 C-170.8559316 94.29960519 -179.32015481 88.21679371 -187.79296875 82.359375 C-202.0701085 72.48318424 -212.79943461 61.93517448 -218 45 C-218.19464844 44.37996094 -218.38929687 43.75992188 -218.58984375 43.12109375 C-220.72721966 32.06780688 -219.13194662 20.87689406 -213.375 11.25 C-208.59477322 4.58128857 -202.26190138 0.60076327 -194.17578125 -0.75390625 C-182.14627367 -2.11451483 -171.61715053 1.43307317 -161.91015625 8.52734375 C-156.46602967 12.96832992 -152.85988605 18.18790236 -149 24 C-141.84583319 34.49152098 -134.39456839 44.47103048 -126 54 C-125.36449219 54.73476562 -124.72898437 55.46953125 -124.07421875 56.2265625 C-122.96660673 57.50477224 -121.8523121 58.77723101 -120.73046875 60.04296875 C-119.44895406 61.4922664 -118.1830576 62.95540722 -116.92578125 64.42578125 C-111.0666329 71.16431312 -104.42330397 78.5035342 -96 82 C-92.92902701 81.84645135 -91.42408106 81.34720581 -89.0390625 79.39453125 C-86.54068954 76.46061818 -85.27149326 73.35054058 -83.875 69.8125 C-72.61823907 42.89348563 -50.66129163 9.46143372 -23.0078125 -2.2734375 C-14.62730311 -5.3060732 -7.78958555 -4.0329951 0 0 Z " fill="#88A9C3" transform="translate(1850,80)"/>
<path d="M0 0 C1.63329608 1.51192028 3.25812886 3.0330273 4.875 4.5625 C5.75800781 5.38105469 6.64101563 6.19960937 7.55078125 7.04296875 C30.17754056 28.70961098 43.79473315 58.16116574 49.875 88.5625 C65.715 89.0575 65.715 89.0575 81.875 89.5625 C82.535 85.6025 83.195 81.6425 83.875 77.5625 C84.84168135 74.10596102 85.83861313 70.7601732 87 67.375 C87.30639404 66.47571777 87.61278809 65.57643555 87.9284668 64.64990234 C94.66459187 45.38291636 104.49163775 28.96946341 117.875 13.5625 C118.66648437 12.63695312 119.45796875 11.71140625 120.2734375 10.7578125 C125.96508377 4.27615854 132.01293634 -1.22269565 138.875 -6.4375 C139.88820313 -7.22769531 140.90140625 -8.01789063 141.9453125 -8.83203125 C162.78046691 -24.68923575 187.93140074 -34.96879778 213.875 -38.4375 C214.87623901 -38.57454346 214.87623901 -38.57454346 215.89770508 -38.71435547 C255.33069395 -43.66831511 296.92058792 -33.05069927 328.66796875 -9.00390625 C334.02834171 -4.79114262 338.97658381 -0.17218083 343.875 4.5625 C344.73867188 5.37460938 345.60234375 6.18671875 346.4921875 7.0234375 C372.63372865 32.18772478 389.76305139 70.20661499 390.875 106.5625 C390.89546387 107.22507813 390.91592773 107.88765625 390.93701172 108.5703125 C392.01784315 149.58831179 379.50539541 189.96283145 351.04223633 220.23388672 C349.65791288 221.68132081 348.26648532 223.12194961 346.875 224.5625 C346.01261719 225.48804688 345.15023437 226.41359375 344.26171875 227.3671875 C318.5521618 254.25747966 279.89151328 270.83873354 242.79296875 271.765625 C196.89599506 272.29982508 157.18500066 257.3711431 123.87109375 225.55859375 C119.45041283 221.21603152 115.60091993 216.50805559 111.875 211.5625 C111.07578125 210.52867187 110.2765625 209.49484375 109.453125 208.4296875 C94.62680176 188.83476527 85.90682529 166.75345171 81.875 142.5625 C66.035 143.0575 66.035 143.0575 49.875 143.5625 C49.359375 145.975625 48.84375 148.38875 48.3125 150.875 C41.79624249 179.20235088 27.9759218 203.75280099 7.875 224.5625 C7.01261719 225.48804688 6.15023438 226.41359375 5.26171875 227.3671875 C-20.68595853 254.50653588 -59.39593848 270.54772722 -96.68359375 271.84375 C-136.46840181 272.65539728 -174.98531868 261.27623193 -205.125 234.5625 C-205.64690918 234.10617187 -206.16881836 233.64984375 -206.70654297 233.1796875 C-214.28702647 226.52647347 -221.04362173 219.64920731 -227.125 211.5625 C-227.5281543 211.03430664 -227.93130859 210.50611328 -228.34667969 209.96191406 C-243.05702177 190.59310853 -252.66211561 168.49426153 -257.125 144.5625 C-257.46144531 142.8609375 -257.46144531 142.8609375 -257.8046875 141.125 C-264.42446146 101.22499255 -254.65273191 59.32177228 -231.44189453 26.38134766 C-228.21066753 21.91849242 -224.76066674 17.69941922 -221.125 13.5625 C-220.33480469 12.63953125 -219.54460937 11.7165625 -218.73046875 10.765625 C-213.04018977 4.27781086 -206.95522965 -1.18057842 -200.125 -6.4375 C-199.20074219 -7.17742187 -198.27648437 -7.91734375 -197.32421875 -8.6796875 C-139.12542519 -54.19917691 -54.3957929 -48.04675713 0 0 Z M-212.375 17.9375 C-237.94607902 47.19148401 -252.57238576 85.55346582 -249.98876953 124.62255859 C-246.78764117 164.93138455 -228.78574662 201.0326268 -198.3984375 227.8203125 C-170.00655016 252.03345322 -131.68134787 264.78796511 -94.4765625 262.30078125 C-59.65420497 259.39069237 -28.49663118 245.61713048 -3.125 221.5625 C-2.16722656 220.66917969 -1.20945312 219.77585937 -0.22265625 218.85546875 C23.78706802 196.00738001 40.52248391 162.39572607 42.03613281 129.00830078 C42.08211832 124.90115344 42.12166055 120.79490943 42.125 116.6875 C42.12567474 115.94540283 42.12634949 115.20330566 42.12704468 114.4387207 C42.11122626 103.5047971 41.6514572 93.19236471 38.875 82.5625 C38.72466309 81.91635742 38.57432617 81.27021484 38.41943359 80.60449219 C32.53527744 55.34478135 18.84012699 32.96517306 0.875 14.5625 C0.03710938 13.65113281 -0.80078125 12.73976562 -1.6640625 11.80078125 C-27.9523959 -16.03626061 -66.08113966 -29.18593356 -103.640625 -30.52734375 C-145.64292888 -29.00839251 -183.44609169 -12.89880885 -212.375 17.9375 Z M175.875 -17.4375 C174.90336914 -16.99881592 174.90336914 -16.99881592 173.91210938 -16.55126953 C138.79476433 -0.52792055 111.66797015 29.35134348 97.625 65.1875 C84.35909974 100.96454266 85.89380836 141.45629975 101.72583008 176.08349609 C118.81765659 212.25134072 148.55720079 240.39551071 186.38867188 254.04711914 C225.52048437 267.43993925 265.04396936 263.98876063 302.0625 246.1875 C336.72290477 228.38891377 362.78900814 197.02651263 374.67163086 160.07861328 C382.06137497 136.03773286 384.36770985 108.1399268 377.875 83.5625 C377.68695801 82.80565918 377.49891602 82.04881836 377.30517578 81.26904297 C372.56285299 62.49970655 364.6989341 44.93579184 352.875 29.5625 C352.28847656 28.75554687 351.70195313 27.94859375 351.09765625 27.1171875 C331.73663047 1.44370474 303.82318323 -17.0012097 272.875 -25.4375 C271.72257813 -25.75203125 270.57015625 -26.0665625 269.3828125 -26.390625 C238.33612428 -33.84183017 204.88725009 -30.71908202 175.875 -17.4375 Z M50.875 98.5625 C50.875 110.1125 50.875 121.6625 50.875 133.5625 C60.775 133.5625 70.675 133.5625 80.875 133.5625 C80.875 122.0125 80.875 110.4625 80.875 98.5625 C70.975 98.5625 61.075 98.5625 50.875 98.5625 Z " fill="#88A9C3" transform="translate(592.125,111.4375)"/>
<path d="M0 0 C0.72832031 0.20367187 1.45664062 0.40734375 2.20703125 0.6171875 C18.53359775 5.38277988 33.36760707 13.62476335 46 25 C46.81339844 25.67160156 47.62679687 26.34320313 48.46484375 27.03515625 C71.0690252 46.13979618 85.47383349 75.60263053 88 105 C89.7042142 141.32909997 80.57566729 173.16774641 56.09765625 200.64453125 C41.18781886 216.98490086 22.40787837 228.51606163 1.25 234.875 C0.61400879 235.06618408 -0.02198242 235.25736816 -0.67724609 235.4543457 C-31.90790671 244.14794506 -65.37899214 239.47408269 -93.62695312 224.1706543 C-122.2348816 208.01599118 -142.200024 181.42578825 -151.4543457 150.23486328 C-160.30100283 118.29373266 -155.31082527 84.14949947 -139.125 55.52734375 C-123.05851047 28.24840096 -96.68298055 8.13420481 -66.25 -0.3125 C-44.53460243 -5.89285217 -21.62042309 -6.07020544 0 0 Z M-116.63671875 41.296875 C-137.48711044 65.14558748 -146.73572586 93.52728256 -146 125 C-140.95195653 120.8205755 -136.45849792 116.42446897 -132.03515625 111.59765625 C-125.37885865 104.43403448 -118.54796951 97.45944159 -111.62109375 90.55859375 C-111.12690571 90.06593647 -110.63271767 89.57327919 -110.12355423 89.0656929 C-106.56510493 85.51936788 -103.00181678 81.97792631 -99.4375 78.4375 C-95.8362232 74.86009038 -92.23677867 71.28087046 -88.64149666 67.69743538 C-87.22846405 66.29076211 -85.812333 64.88720341 -84.39610291 63.48374939 C-80.02490874 59.12917506 -75.82904861 54.71609626 -71.81089783 50.03575134 C-68.10323358 45.86771804 -64.09058808 41.99083846 -60.12890625 38.06640625 C-58.72015078 36.66343442 -57.31139796 35.26045993 -55.90280819 33.85732174 C-53.45818902 31.42354997 -51.01022468 28.99314776 -48.5625 26.5625 C-45.61199062 23.63238778 -42.6621038 20.70166661 -39.71604919 17.76707458 C-37.88768749 15.94627412 -36.05706099 14.12774463 -34.22401428 12.31166077 C-33.40573654 11.49668625 -32.5874588 10.68171173 -31.74438477 9.84204102 C-31.01937271 9.12226578 -30.29436066 8.40249054 -29.54737854 7.66090393 C-27.88639015 6.25639137 -27.88639015 6.25639137 -28 5 C-61.68747155 3.36703459 -93.42534573 17.13577313 -116.63671875 41.296875 Z M-21.11669922 11.30029297 C-25.71110979 16.69758493 -30.5977589 21.71566931 -35.62701797 26.70218277 C-37.17799142 28.24011144 -38.72557225 29.7813886 -40.27243042 31.32345581 C-43.55376984 34.59350781 -46.83907145 37.8595603 -50.125 41.125 C-53.94641821 44.92264621 -57.7661003 48.72200724 -61.58156967 52.52563095 C-63.09210971 54.02978187 -64.60567079 55.53084392 -66.11941528 57.0317688 C-70.0240013 60.92250742 -73.89460811 64.79447959 -77.48193359 68.98193359 C-81.60457983 73.79088826 -86.10643308 78.21859115 -90.60075378 82.67591858 C-92.19353491 84.25573133 -93.78299157 85.83882586 -95.3717041 87.42272949 C-99.31514616 91.35292659 -103.26406286 95.27760772 -107.21282959 99.20245361 C-110.56139027 102.53115714 -113.90780693 105.86198931 -117.25151062 109.1955719 C-118.80415238 110.74181555 -120.35981403 112.2849738 -121.91564941 113.82800293 C-126.62026963 118.50918932 -131.21510467 123.21712548 -135.4642334 128.32092285 C-137.18669523 130.20411676 -139.06535108 131.72796757 -141.0625 133.3125 C-143.13508637 135.39442234 -143.94495685 136.37123788 -144.203125 139.3203125 C-143.75005133 142.35590612 -142.96266583 145.08358433 -142 148 C-141.59910156 149.23363281 -141.19820313 150.46726562 -140.78515625 151.73828125 C-134.92140714 168.83035167 -126.12164272 184.39954402 -113 197 C-109.92513447 195.62850763 -107.81685531 194.06548894 -105.4440918 191.68701172 C-104.76626144 191.012258 -104.08843109 190.33750427 -103.39006042 189.64230347 C-102.66708267 188.9121402 -101.94410492 188.18197693 -101.19921875 187.4296875 C-100.44461868 186.67462921 -99.69001862 185.91957092 -98.91255188 185.14163208 C-97.31571261 183.54177249 -95.72130373 181.93948395 -94.12915039 180.33496094 C-91.71220127 177.89988651 -89.28747835 175.47277849 -86.86132812 173.046875 C-85.30682161 171.4874476 -83.75277068 169.92756589 -82.19921875 168.3671875 C-81.12386116 167.29016068 -81.12386116 167.29016068 -80.02677917 166.19137573 C-76.80262474 162.93729255 -73.66505962 159.65788122 -70.68481445 156.17822266 C-66.4942776 151.32656812 -61.94821862 146.83561071 -57.39924622 142.32408142 C-55.80646509 140.74426867 -54.21700843 139.16117414 -52.6282959 137.57727051 C-48.68485384 133.64707341 -44.73593714 129.72239228 -40.78717041 125.79754639 C-37.43860973 122.46884286 -34.09219307 119.13801069 -30.74848938 115.8044281 C-29.19584762 114.25818445 -27.64018597 112.7150262 -26.08435059 111.17199707 C-21.42849483 106.54008131 -16.90644191 101.85648086 -12.6335144 96.86727905 C-9.71319264 93.52904363 -6.58205237 90.39931934 -3.45703125 87.25390625 C-2.42070808 86.20903297 -2.42070808 86.20903297 -1.3634491 85.14305115 C0.08306081 83.68717402 1.53096776 82.23268371 2.98022461 80.77954102 C5.19912153 78.55082705 7.40713347 76.31166977 9.61523438 74.07226562 C11.02798812 72.65299084 12.44137703 71.23434795 13.85546875 69.81640625 C14.51282516 69.14670303 15.17018158 68.47699982 15.84745789 67.78700256 C16.46522598 67.17223557 17.08299408 66.55746857 17.71948242 65.92407227 C18.2579631 65.38194595 18.79644379 64.83981964 19.35124207 64.28126526 C21.27821211 62.78379876 22.57113886 62.23553352 25 62 C25.99 62.66 26.98 63.32 28 64 C27.54763553 68.85821444 26.52032552 71.09759107 23.05029297 74.50146484 C22.21207001 75.33608246 21.37384705 76.17070007 20.51022339 77.03060913 C19.59677155 77.91511749 18.6833197 78.79962585 17.7421875 79.7109375 C16.31100728 81.12768017 14.87982903 82.54442483 13.44876289 83.96128273 C11.44213589 85.94157891 9.4240688 87.91002699 7.40618896 89.87884521 C3.89508125 93.30961746 0.40322295 96.75999029 -3.09030151 100.20864868 C-4.94724761 102.04170829 -6.81000561 103.86813089 -8.67654419 105.6914978 C-12.39079717 109.33549022 -16.04513666 112.96913998 -19.43115234 116.92236328 C-23.57094774 121.75168461 -28.08755731 126.19987075 -32.60075378 130.67591858 C-34.19353491 132.25573133 -35.78299157 133.83882586 -37.3717041 135.42272949 C-41.31514616 139.35292659 -45.26406286 143.27760772 -49.21282959 147.20245361 C-52.56139027 150.53115714 -55.90780693 153.86198931 -59.25151062 157.1955719 C-60.80415238 158.74181555 -62.35981403 160.2849738 -63.91564941 161.82800293 C-68.60086489 166.4892149 -73.15204416 171.20318463 -77.4515686 176.2244873 C-79.89415428 179.02528422 -82.51232695 181.63666319 -85.15234375 184.25 C-85.96983849 185.06537231 -85.96983849 185.06537231 -86.80384827 185.8972168 C-88.51269217 187.60054815 -90.22501197 189.30033326 -91.9375 191 C-93.11026009 192.16773374 -94.28278798 193.33570074 -95.45507812 194.50390625 C-98.30071689 197.33863234 -101.14947453 200.17018824 -104 203 C-102.10738863 207.34627129 -99.18738634 209.15044411 -95.25 211.5625 C-94.6415625 211.94857422 -94.033125 212.33464844 -93.40625 212.73242188 C-87.10843937 217.26021664 -87.10843937 217.26021664 -80.01196289 218.73876953 C-77.77086624 217.91586473 -76.67535179 217.03592701 -75.01171875 215.33984375 C-74.19864258 214.5190332 -74.19864258 214.5190332 -73.36914062 213.68164062 C-72.81419922 213.10607422 -72.25925781 212.53050781 -71.6875 211.9375 C-71.14416016 211.38900391 -70.60082031 210.84050781 -70.04101562 210.27539062 C-67.18143869 207.36179571 -64.43774605 204.37808996 -61.7734375 201.28515625 C-57.49146496 196.35265212 -52.98099823 191.65201506 -48.40209961 186.99707031 C-47.41764562 185.99079062 -46.43952065 184.97828372 -45.4675293 183.95996094 C-44.04342272 182.46901388 -42.60063462 180.99866921 -41.15234375 179.53125 C-40.30663818 178.66048828 -39.46093262 177.78972656 -38.58959961 176.89257812 C-35.47619393 174.61718255 -33.77119919 174.60118597 -30 175 C-28.70248747 179.45733715 -28.70248747 179.45733715 -29.9765625 181.78125 C-30.52054687 182.3484375 -31.06453125 182.915625 -31.625 183.5 C-32.59953125 184.53060547 -32.59953125 184.53060547 -33.59375 185.58203125 C-34.3878125 186.37996094 -35.181875 187.17789063 -36 188 C-36.69416016 188.70455322 -36.69416016 188.70455322 -37.40234375 189.42333984 C-41.81199509 193.89741791 -46.28001216 198.31192263 -50.74804688 202.72753906 C-61.55507815 212.46352845 -61.55507815 212.46352845 -70 224 C-40.77595032 233.14917057 -10.65345142 231.95107115 16.98022461 218.18115234 C45.90242972 203.01385756 65.29132543 178.14885462 75.1640625 147.37109375 C75.90919834 144.36617679 76.06978522 142.05783168 76 139 C75.31897217 138.98018066 74.63794434 138.96036133 73.9362793 138.93994141 C70.85296083 138.84473017 67.77032351 138.73503534 64.6875 138.625 C63.0797168 138.57859375 63.0797168 138.57859375 61.43945312 138.53125 C59.89741211 138.47324219 59.89741211 138.47324219 58.32421875 138.4140625 C57.37635498 138.3826416 56.42849121 138.3512207 55.4519043 138.31884766 C53 138 53 138 50 136 C49.66197325 133.45420623 49.5112053 131.13850914 49.48828125 128.5859375 C49.47033005 127.85629791 49.45237885 127.12665833 49.43388367 126.37490845 C49.37964868 124.04166465 49.34584438 121.70862686 49.3125 119.375 C49.27933838 117.79424208 49.2448498 116.21351139 49.20898438 114.6328125 C49.12391533 110.75535674 49.05716822 106.87796345 49 103 C45.94349474 106.04402407 42.91081685 109.10807623 39.90258789 112.20001221 C37.82375167 114.33280256 35.73382382 116.45459254 33.64355469 118.57617188 C32.54426581 119.69570909 31.44857494 120.8187902 30.35644531 121.9453125 C28.76785849 123.58244212 27.16667156 125.20628165 25.5625 126.828125 C25.079021 127.33224915 24.59554199 127.83637329 24.09741211 128.35577393 C21.21498026 131.24008269 19.13199476 132.79269152 15 133 C14.34 132.67 13.68 132.34 13 132 C12.57115095 129.09173859 12.39155406 126.90737065 14.07766724 124.3928833 C15.68756509 122.63456367 17.36428598 120.98839766 19.09765625 119.3515625 C19.72473984 118.73534027 20.35182343 118.11911804 20.99790955 117.48422241 C23.00575215 115.51651083 25.03304272 113.57038837 27.0625 111.625 C29.70412595 109.05970685 32.33818864 106.48670338 34.97265625 103.9140625 C35.60784683 103.29678284 36.24303741 102.67950317 36.8974762 102.04351807 C40.56370688 98.4659178 44.03919059 94.81513257 47.34204102 90.89599609 C50.98790592 86.72668571 55.00366687 82.89494352 58.9375 79 C59.81212891 78.12988281 60.68675781 77.25976562 61.58789062 76.36328125 C63.72297449 74.23986451 65.86037205 72.11883622 68 70 C54.58731757 42.21357556 32.28992951 21.48512392 3.109375 10.99609375 C-10.02422009 5.87351292 -10.02422009 5.87351292 -21.11669922 11.30029297 Z M71 80 C68.32932797 82.6418167 65.66414667 85.2891042 63 87.9375 C62.236875 88.69224609 61.47375 89.44699219 60.6875 90.22460938 C59.965625 90.94326172 59.24375 91.66191406 58.5 92.40234375 C57.8296875 93.06741943 57.159375 93.73249512 56.46875 94.41772461 C54.88661245 95.7623361 54.88661245 95.7623361 55 97 C62.26 97 69.52 97 77 97 C76.38125 94.380625 75.7625 91.76125 75.125 89.0625 C74.83906982 87.82318726 74.83906982 87.82318726 74.54736328 86.55883789 C74.09276006 84.68993937 73.54845813 82.84353992 73 81 C72.34 80.67 71.68 80.34 71 80 Z M59 106 C59 113.59 59 121.18 59 129 C65.27 129 71.54 129 78 129 C78.81915899 124.90420505 79.13463533 121.62392096 79.125 117.5 C79.12757813 116.3965625 79.13015625 115.293125 79.1328125 114.15625 C79.06752772 110.66719757 79.06752772 110.66719757 78 106 C71.73 106 65.46 106 59 106 Z " fill="#88A9C3" transform="translate(522,110)"/>
<path d="M0 0 C1.2257373 0.00563965 2.45147461 0.0112793 3.71435547 0.01708984 C13.17989407 0.14326371 22.10513423 0.84164052 31.25 3.3125 C31.96768555 3.50585938 32.68537109 3.69921875 33.42480469 3.8984375 C64.61229859 12.65092604 90.90761532 33.35525353 107.25 61.3125 C122.68969854 89.25888403 127.37223412 123.15926717 118.89160156 154.125 C109.52001548 186.0768308 88.47257249 213.27268976 59.18896484 229.45117188 C29.83537664 244.88811866 -5.0865515 248.29732954 -36.89404297 238.66308594 C-56.03893191 232.55273114 -72.16557739 222.0419737 -86.75 208.3125 C-87.35328125 207.77367187 -87.9565625 207.23484375 -88.578125 206.6796875 C-94.63047688 201.05156589 -99.14540746 194.12521306 -103.75 187.3125 C-104.31976562 186.4771875 -104.88953125 185.641875 -105.4765625 184.78125 C-121.59844606 159.60697193 -125.61062967 126.55944273 -120.625 97.4375 C-120.06178809 95.04709369 -119.43673842 92.67038896 -118.75 90.3125 C-118.56195801 89.65781738 -118.37391602 89.00313477 -118.18017578 88.32861328 C-113.47162981 72.41245429 -105.96220328 56.64812639 -94.75 44.3125 C-94.04230469 43.4875 -93.33460938 42.6625 -92.60546875 41.8125 C-77.06422488 23.95776099 -57.68522564 11.25547812 -35 4.4375 C-34.36400879 4.24631592 -33.72801758 4.05513184 -33.07275391 3.8581543 C-22.20745406 0.83360849 -11.23855469 -0.05463945 0 0 Z M-83.4375 47.0625 C-102.34272845 69.0839749 -113.55355023 98.05490739 -111.75 127.3125 C-108.91445801 158.84591864 -96.19075802 187.21098993 -71.65234375 208.0078125 C-53.53338997 222.70830517 -30.32462995 233.33531327 -6.75 234.3125 C-5.76644531 234.3640625 -4.78289062 234.415625 -3.76953125 234.46875 C27.89872114 235.34336226 55.86844161 222.90668211 78.88476562 201.66943359 C96.37702129 184.9184726 108.8628891 160.49052322 111.25 136.3125 C111.38148438 135.05824219 111.51296875 133.80398437 111.6484375 132.51171875 C114.30637393 102.7996628 105.24035493 73.66214358 86.26171875 50.70703125 C85.59785156 49.91683594 84.93398438 49.12664062 84.25 48.3125 C83.65832031 47.57386719 83.06664062 46.83523437 82.45703125 46.07421875 C65.01520812 25.13659311 37.67039052 12.6569825 10.9375 9.5625 C9.37649345 9.45475376 7.81359488 9.37184436 6.25 9.3125 C5.34507812 9.27253906 4.44015625 9.23257813 3.5078125 9.19140625 C-30.02616239 8.4353352 -60.67140019 22.97836283 -83.4375 47.0625 Z " fill="#88A9C3" transform="translate(827.75,105.6875)"/>
<path d="M0 0 C1.070442 -0.00445784 2.14088399 -0.00891569 3.24376363 -0.01350862 C4.42408927 -0.01332426 5.60441491 -0.01313989 6.820508 -0.01294994 C8.07107733 -0.01662663 9.32164665 -0.02030332 10.61011201 -0.02409142 C14.08817382 -0.03411451 17.56621837 -0.03782871 21.04429257 -0.04048073 C24.79290159 -0.04438288 28.54149694 -0.05396128 32.29009724 -0.0626936 C41.3464316 -0.08246065 50.40276708 -0.09252456 59.45911762 -0.10142139 C63.72330245 -0.10580393 67.98748604 -0.11117083 72.25166988 -0.11641026 C86.42579579 -0.13342285 100.59992093 -0.14791717 114.77405548 -0.155159 C118.45273241 -0.15706891 122.13140934 -0.15898924 125.81008625 -0.16094494 C126.72441 -0.16142868 127.63873374 -0.16191242 128.58076427 -0.16241082 C143.39325306 -0.17071168 158.20566112 -0.19604939 173.01811465 -0.22852562 C188.22369675 -0.26159213 203.4292378 -0.27960739 218.63485605 -0.28280324 C227.1730807 -0.28496872 235.71118762 -0.29372298 244.24937725 -0.31926441 C251.52073228 -0.34096586 258.79194097 -0.3490246 266.06332471 -0.33929763 C269.77271416 -0.33475126 273.48180164 -0.33665834 277.19114971 -0.35605907 C281.21495057 -0.37692251 285.23808107 -0.3667109 289.26191425 -0.35352612 C290.43108629 -0.36449536 291.60025833 -0.37546461 292.80485982 -0.38676625 C300.03259712 -0.32952441 305.92560747 0.4729174 311.37538213 5.54613417 C316.46144696 11.2586438 317.1544649 16.42606888 317.1174593 23.84003162 C317.12271626 25.13840961 317.12271626 25.13840961 317.12807941 26.46301746 C317.13686154 29.3157405 317.13106155 32.1682144 317.12429523 35.02093983 C317.12564253 37.00440487 317.12758359 38.98786959 317.13009357 40.9713335 C317.13303975 45.12307353 317.12876205 49.2747274 317.11941242 53.42645741 C317.10799588 58.75655503 317.11459449 64.08645173 317.12655735 69.41654205 C317.13377057 73.50936375 317.13149089 77.60213748 317.12630177 81.69496059 C317.12496493 83.66102402 317.12661416 85.62709175 317.13126087 87.59315014 C317.1363197 90.33441633 317.12862603 93.07535261 317.1174593 95.81659412 C317.12150776 96.63376408 317.12555622 97.45093403 317.12972736 98.29286671 C317.08720311 103.9056882 317.08720311 103.9056882 314.85867023 106.13422108 C311.85867023 106.44672108 311.85867023 106.44672108 308.85867023 106.13422108 C306.30085502 102.29749825 306.60560567 99.18886121 306.66335773 94.74750233 C306.66760258 93.5219891 306.66760258 93.5219891 306.67193317 92.27171803 C306.68312483 89.66323649 306.70822733 87.05509877 306.73367023 84.44672108 C306.74370136 82.67784583 306.75282698 80.9089652 306.76101398 79.14008045 C306.78306082 74.80466159 306.81758354 70.46949962 306.85867023 66.13422108 C305.65010868 66.1386623 304.44154713 66.14310352 303.1963625 66.14767933 C291.8217281 66.18817553 280.44710827 66.21818147 269.07241821 66.23784542 C263.22420154 66.24829459 257.37604294 66.26247448 251.52785969 66.28509998 C245.88688617 66.30678792 240.24596861 66.31878116 234.60495663 66.32397556 C232.44991709 66.32767861 230.29488071 66.33490945 228.13986492 66.34568119 C225.12768972 66.36014224 222.11574745 66.36220127 219.10354328 66.36127186 C218.20730747 66.36846241 217.31107166 66.37565296 216.38767719 66.38306141 C215.56738026 66.38031208 214.74708332 66.37756275 213.9019289 66.37473011 C213.18938293 66.3765737 212.47683695 66.37841728 211.74269867 66.38031673 C209.85867023 66.13422108 209.85867023 66.13422108 206.85867023 64.13422108 C206.48367023 61.13422108 206.48367023 61.13422108 206.85867023 58.13422108 C209.90942052 56.10038755 210.48017454 55.88485886 213.9019289 55.89371204 C214.72222584 55.89096272 215.54252277 55.88821339 216.38767719 55.88538074 C217.283913 55.8925713 218.18014881 55.89976185 219.10354328 55.9071703 C220.05007771 55.90687824 220.99661213 55.90658619 221.97182941 55.90628529 C225.10477541 55.90768017 228.23748446 55.92324891 231.37038898 55.93890858 C233.54086394 55.94263814 235.71134058 55.94548538 237.88181782 55.94748402 C243.5979854 55.95512491 249.31405155 55.97477737 255.03017902 55.99689198 C260.86166734 56.01734055 266.69317203 56.02648362 272.52468586 56.03656483 C283.96939191 56.05802278 295.41402264 56.09216428 306.85867023 56.13422108 C306.81453612 50.36787104 306.74472252 44.60261793 306.6511507 38.8368578 C306.6229347 36.87568361 306.60172329 34.91439557 306.58767414 32.95306873 C306.56625325 30.13265131 306.51960814 27.31360365 306.46804523 24.49359608 C306.46620228 23.17932636 306.46620228 23.17932636 306.46432209 21.83850574 C306.35604683 16.89889769 306.35604683 16.89889769 304.0705843 12.61176014 C300.40227583 10.16136248 297.07505791 10.00880876 292.73205566 10.00279331 C291.16950689 9.99703159 291.16950689 9.99703159 289.57539147 9.99115348 C287.86077689 9.9924532 287.86077689 9.9924532 286.11152363 9.99377918 C284.89614629 9.99080806 283.68076894 9.98783694 282.42856199 9.98477578 C279.05342907 9.97759511 275.67834705 9.97491644 272.30321014 9.97417831 C268.66370662 9.97232708 265.02421413 9.96477943 261.38471699 9.9580431 C253.4260615 9.9444625 245.46741105 9.9384356 237.50874591 9.93403244 C232.53966048 9.93126978 227.570577 9.92703241 222.60149288 9.92252827 C208.84423126 9.91033639 195.08697119 9.90003663 181.32970428 9.89665318 C180.44925755 9.89643361 179.56881081 9.89621404 178.66168388 9.89598782 C177.77912999 9.89576955 176.89657611 9.89555127 175.98727816 9.89532638 C174.19888476 9.89488291 172.41049137 9.89443635 170.62209797 9.8939867 C169.73499295 9.89376527 168.84788792 9.89354384 167.93390093 9.8933157 C153.55730594 9.88936707 139.18076161 9.87191071 124.80418619 9.84862718 C110.04493177 9.82491674 95.28570277 9.81245148 80.526429 9.81128526 C72.23922612 9.81036837 63.95208928 9.80461252 55.66490459 9.78646564 C48.60875522 9.77106887 41.55269228 9.76594171 34.4965293 9.77420375 C30.89667047 9.77811166 27.29698575 9.77717392 23.69714832 9.7631464 C19.79361289 9.74807458 15.89032275 9.7562698 11.98676777 9.7667284 C10.85038355 9.758672 9.71399932 9.75061559 8.54317921 9.74231505 C2.54006864 9.78000797 -1.86023399 10.18804791 -7.14132977 13.13422108 C-10.13335089 16.58886186 -9.49496168 21.70119502 -9.55539227 26.05609608 C-9.57475842 26.91608204 -9.59412457 27.776068 -9.61407757 28.66211414 C-9.6737479 31.40271629 -9.72020836 34.14336072 -9.76632977 36.88422108 C-9.80452111 38.74491625 -9.84357352 40.60559395 -9.88351727 42.46625233 C-9.97943912 47.02209972 -10.06351645 51.57802987 -10.14132977 56.13422108 C-8.93276821 56.12533863 -7.72420666 56.11645618 -6.47902203 56.10730457 C4.89557129 56.02631247 16.27010631 55.96630072 27.64492226 55.92697239 C33.49323042 55.90607373 39.34130632 55.8777142 45.18948078 55.83246326 C50.83047177 55.78908725 56.47123899 55.76510115 62.11238384 55.7547121 C64.26745027 55.74730593 66.42250408 55.73284388 68.57747555 55.71130085 C71.58985464 55.6823768 74.60130219 55.6782605 77.61379719 55.68011951 C78.510033 55.66573841 79.40626881 55.65135731 80.32966328 55.63654041 C86.33627851 55.67680427 86.33627851 55.67680427 88.9833498 57.99463367 C89.85867023 60.13422108 89.85867023 60.13422108 89.10867023 62.82172108 C87.85867023 65.13422108 87.85867023 65.13422108 86.85867023 66.13422108 C83.84516786 66.22951719 80.85462918 66.25974011 77.84084797 66.24774647 C76.8946056 66.24789249 75.94836323 66.24803852 74.97344685 66.24818897 C71.82969632 66.24748944 68.68600423 66.23969516 65.54226398 66.23187733 C63.36892956 66.23001329 61.19559471 66.22858932 59.02225971 66.22758961 C53.28965828 66.22376329 47.55708201 66.21393204 41.82449055 66.20288563 C35.97976745 66.19267394 30.1350403 66.18809251 24.29031086 66.1830492 C12.81308624 66.17230987 1.33588032 66.1552321 -10.14132977 66.13422108 C-10.13609295 67.27488026 -10.13085613 68.41553944 -10.12546062 69.59076405 C-10.10739108 73.81373787 -10.09589057 78.03670826 -10.08639812 82.25970936 C-10.08136239 84.08914228 -10.0745335 85.91857117 -10.06589031 87.74799061 C-10.05379152 90.37414005 -10.04809394 93.0002364 -10.04367352 95.62640858 C-10.03851223 96.44728962 -10.03335094 97.26817066 -10.02803326 98.11392689 C-10.02745806 103.90647766 -10.02745806 103.90647766 -11.14132977 106.13422108 C-13.47427752 106.17663831 -15.80835543 106.17515045 -18.14132977 106.13422108 C-20.21836905 104.05718179 -19.31974946 99.565866 -19.33420086 96.70233631 C-19.34237835 95.81771214 -19.35055584 94.93308796 -19.35898113 94.02165699 C-19.38389704 91.07871657 -19.4003712 88.13582476 -19.41476727 85.19281483 C-19.42009094 84.18872137 -19.42541462 83.18462791 -19.43089962 82.15010738 C-19.45766424 76.83061072 -19.47702431 71.51113774 -19.49142742 66.19159412 C-19.50803961 60.70258237 -19.55277926 55.2141752 -19.60379887 49.72539139 C-19.63751097 45.50193587 -19.64900954 41.27862272 -19.6546545 37.05504513 C-19.6613612 35.03249041 -19.67656807 33.00994488 -19.70054531 30.98752117 C-19.73227027 28.14847588 -19.732222 25.31104459 -19.72482586 22.47186756 C-19.74123119 21.64193287 -19.75763653 20.81199818 -19.77453899 19.95691395 C-19.71043579 13.91798095 -18.0104934 9.79312112 -14.14132977 5.13422108 C-9.43086625 1.46005953 -5.91662211 0.01141419 0 0 Z " fill="#88A9C3" transform="translate(680.1413297653198,7.865778923034668)"/>
<path d="M0 0 C0.763125 0.20625 1.52625 0.4125 2.3125 0.625 C4.20470769 7.87846283 1.8127559 13.18010062 -1.77734375 19.5625 C-3.22018828 21.82749367 -4.25105558 23.40677779 -6.6875 24.625 C-5.3728506 35.15766164 0.94798892 44.38637396 9.16015625 50.875 C18.56704439 57.8309086 28.66405934 62.79026393 40.3125 64.625 C41.01632812 64.73585938 41.72015625 64.84671875 42.4453125 64.9609375 C61.72115256 67.5172317 82.64002804 64.68825846 98.88671875 53.49609375 C107.29607485 47.00964999 114.01721881 38.75587908 118.125 28.875 C118.62885908 25.74790628 118.62885908 25.74790628 117.22265625 23.9609375 C116.1681796 22.78571925 115.0868617 21.63420799 113.984375 20.50390625 C110.15708579 16.20267702 108.11394486 10.92217667 107.875 5.1875 C108.019375 4.011875 108.16375 2.83625 108.3125 1.625 C111.3125 -0.375 111.3125 -0.375 113.83984375 -0.359375 C116.3125 0.625 116.3125 0.625 117.75390625 3.171875 C118.30884766 4.75742188 118.30884766 4.75742188 118.875 6.375 C120.74268582 11.62261553 122.54825011 15.93321865 127.45703125 18.9375 C131.65314529 19.9477819 135.70511844 19.75446139 140 19.625 C141.71198956 19.57408581 143.42427092 19.53198346 145.13671875 19.5 C145.89041748 19.47679687 146.64411621 19.45359375 147.4206543 19.4296875 C149.3125 19.625 149.3125 19.625 151.3125 21.625 C151.6875 24.0625 151.6875 24.0625 151.3125 26.625 C147.73799681 30.3318922 143.72748635 30.58608398 138.76171875 30.72265625 C137.52035156 30.71105469 136.27898437 30.69945312 135 30.6875 C133.74574219 30.67847656 132.49148438 30.66945313 131.19921875 30.66015625 C130.24660156 30.64855469 129.29398438 30.63695312 128.3125 30.625 C127.9 31.51960938 127.4875 32.41421875 127.0625 33.3359375 C118.89102592 50.6241472 107.15581993 63.16104267 89.3125 70.625 C84.40834583 72.35099079 79.40197548 73.57138929 74.3125 74.625 C73.425625 74.81707031 72.53875 75.00914062 71.625 75.20703125 C49.76788657 77.96494533 25.88889545 75.71305782 7.4375 62.8125 C-3.78143789 54.00355618 -13.14905728 43.74320865 -16.6875 29.625 C-17.3475 29.955 -18.0075 30.285 -18.6875 30.625 C-25.28638594 31.05557981 -31.48964301 31.05024839 -37.6875 28.625 C-39.6875 26.625 -39.6875 26.625 -39.9375 24.125 C-39.6875 21.625 -39.6875 21.625 -37.6875 19.625 C-35.7956543 19.44555664 -35.7956543 19.44555664 -33.51171875 19.53515625 C-32.68349609 19.55513672 -31.85527344 19.57511719 -31.00195312 19.59570312 C-29.26221382 19.65649699 -27.52261751 19.72154391 -25.78320312 19.79101562 C-20.7935592 19.90309903 -17.84207644 19.70276166 -13.6875 16.625 C-13.0275 16.625 -12.3675 16.625 -11.6875 16.625 C-9.54605711 12.60860489 -8.2123265 8.39633833 -6.78515625 4.0859375 C-5.23385281 0.60792623 -3.8367509 -0.53536059 0 0 Z " fill="#88A9C3" transform="translate(768.6875,230.375)"/>
<path d="M0 0 C4.32629522 3.6220146 7.03258571 6.5195 7.6875 12.25 C6.0478125 12.4665625 6.0478125 12.4665625 4.375 12.6875 C0.75627013 13.13288104 0.75627013 13.13288104 -2.3125 14.25 C-3.55023034 17.96319101 -3.98838501 21.39667858 -3.3125 25.25 C-0.53331223 28.53449464 1.27367234 29.16859128 5.5 30 C6.551875 30.0825 7.60375 30.165 8.6875 30.25 C8.6875 33.88 8.6875 37.51 8.6875 41.25 C10.3375 41.91 11.9875 42.57 13.6875 43.25 C17.77467092 46.10733751 21.03083203 49.00962717 23.375 53.4375 C23.6875 56.25 23.6875 56.25 22.3125 58.625 C21.77625 59.16125 21.24 59.6975 20.6875 60.25 C17.64515188 60.17756314 15.44161463 60.03943129 13.26953125 57.765625 C12.80933594 57.16234375 12.34914063 56.5590625 11.875 55.9375 C7.83436694 50.74544643 2.03233544 48.52852616 -4.3125 47.25 C-12.64126364 46.49508977 -19.82568973 47.40035465 -27.3125 51.25 C-30.2096941 53.56273442 -30.2096941 53.56273442 -32.3125 56.25 C-33.97916667 57.91666667 -35.64583333 59.58333333 -37.3125 61.25 C-39.2925 60.59 -41.2725 59.93 -43.3125 59.25 C-43.87008698 56.06378867 -43.79487091 53.98647701 -42 51.24609375 C-37.30916075 45.72807526 -37.30916075 45.72807526 -34.52856445 44.39428711 C-32.25088069 43.21241812 -30.90544922 42.28161435 -29.3125 40.25 C-28.36880091 35.4847675 -28.51740206 30.77940717 -28.625 25.9375 C-28.83766701 10.12925206 -28.83766701 10.12925206 -24.3125 3.25 C-17.61530411 -3.62820118 -8.24338137 -4.35499393 0 0 Z " fill="#88A9C3" transform="translate(888.3125,158.75)"/>
<path d="M0 0 C5.19261824 3.50955966 7.03367441 6.89013615 8.68359375 12.87109375 C7.76126953 13.01804688 7.76126953 13.01804688 6.8203125 13.16796875 C1.83646403 14.02747215 1.83646403 14.02747215 -2.37890625 16.62109375 C-3.65770374 19.69020773 -3.85485703 21.57308269 -3.31640625 24.87109375 C-0.58973012 28.58928848 0.95627344 29.71609106 5.49609375 30.68359375 C6.54796875 30.74546875 7.59984375 30.80734375 8.68359375 30.87109375 C8.63976562 31.51175781 8.5959375 32.15242188 8.55078125 32.8125 C8.55957995 35.76446368 8.76416863 38.05509662 9.68359375 40.87109375 C12.0361469 43.06994107 14.48039492 44.61152622 17.2265625 46.28515625 C20.6001248 48.46268613 21.9603946 50.26804099 23.68359375 53.87109375 C24.12109375 56.62109375 24.12109375 56.62109375 23.68359375 58.87109375 C20.68359375 60.87109375 20.68359375 60.87109375 18.30859375 60.87109375 C15.22209195 59.69528354 14.21743329 58.07445652 12.26953125 55.5 C6.8380404 49.92135053 -1.33612653 47.74942306 -8.87890625 47.55859375 C-18.11153183 47.64877813 -25.71420675 50.42608947 -32.31640625 56.87109375 C-32.80109375 57.34289062 -33.28578125 57.8146875 -33.78515625 58.30078125 C-34.97867208 59.47440515 -36.15007087 60.67045439 -37.31640625 61.87109375 C-39.75390625 61.18359375 -39.75390625 61.18359375 -42.31640625 59.87109375 C-43.50390625 57.74609375 -43.50390625 57.74609375 -43.31640625 54.87109375 C-41.35506191 51.05080457 -39.06551949 47.69969237 -35.10961914 45.82568359 C-32.29832776 44.41406117 -30.42034913 43.22818057 -28.31640625 40.87109375 C-27.12754464 35.71157224 -27.32165447 30.62451635 -27.50390625 25.37109375 C-27.55052122 23.26158526 -27.58383582 21.15358048 -27.59480286 19.0435791 C-27.60863622 17.12956294 -27.66292324 15.21596471 -27.71948242 13.30273438 C-27.11251806 8.13526555 -24.64525041 5.12999874 -20.94140625 1.62109375 C-14.39661669 -2.74209929 -7.16559908 -3.49217223 0 0 Z " fill="#88A9C3" transform="translate(786.31640625,158.12890625)"/>
<path d="M0 0 C0.7283757 0.00247742 1.4567514 0.00495483 2.2071991 0.00750732 C3.35861641 -0.00015907 3.35861641 -0.00015907 4.53329468 -0.00798035 C7.07766963 -0.02191222 9.62177485 -0.02091708 12.16618347 -0.01861572 C13.92973431 -0.02250036 15.69328421 -0.02683454 17.45683289 -0.03160095 C21.15571626 -0.03907066 24.8545042 -0.03876624 28.5533905 -0.0335083 C33.30185571 -0.02770918 38.04993144 -0.04465159 42.79833221 -0.06785297 C46.44080401 -0.08255788 50.08318127 -0.08346652 53.72567749 -0.08034325 C55.47683484 -0.08085798 57.22799728 -0.08612409 58.97912598 -0.09615517 C61.42390037 -0.10844139 63.86790649 -0.10177591 66.31266785 -0.09014893 C67.04104355 -0.09779266 67.76941925 -0.1054364 68.51986694 -0.11331177 C70.53373718 -0.09205627 70.53373718 -0.09205627 73.75993347 0.28216553 C75.96537781 3.59033203 76.01620482 4.64988385 76.02555847 8.50091553 C76.02942566 10.02265381 76.02942566 10.02265381 76.03337097 11.57513428 C76.0256366 12.63345459 76.01790222 13.6917749 76.00993347 14.78216553 C76.02153503 16.369646 76.02153503 16.369646 76.03337097 17.98919678 C76.03079285 19.00368896 76.02821472 20.01818115 76.02555847 21.06341553 C76.02330261 21.99218506 76.02104675 22.92095459 76.01872253 23.87786865 C75.75993347 26.28216553 75.75993347 26.28216553 73.75993347 29.28216553 C71.19794183 29.57934308 68.87686875 29.68138928 66.31266785 29.65447998 C65.16125053 29.65995598 65.16125053 29.65995598 63.98657227 29.6655426 C61.44205291 29.67366734 58.89816656 29.66002246 56.35368347 29.64544678 C54.59013367 29.6449284 52.82658329 29.64544523 51.06303406 29.6469574 C47.36409396 29.64686759 43.66537142 29.63642051 39.96647644 29.61834717 C35.2180696 29.59565965 30.46998085 29.59511494 25.72153473 29.60186481 C22.07905739 29.6052016 18.43665297 29.5985802 14.79418945 29.58873558 C13.04304384 29.58487827 11.29189012 29.58373755 9.54074097 29.58532143 C7.09606898 29.58569107 4.65180933 29.5731005 2.2071991 29.55682373 C1.47882339 29.55930115 0.75044769 29.56177856 0 29.56433105 C-5.01132486 29.5109072 -5.01132486 29.5109072 -7.24006653 27.28216553 C-7.49885559 24.79193115 -7.49885559 24.79193115 -7.50569153 21.68841553 C-7.50826965 20.57595459 -7.51084778 19.46349365 -7.51350403 18.31732178 C-7.50190247 16.56741943 -7.50190247 16.56741943 -7.49006653 14.78216553 C-7.4978009 13.61556396 -7.50553528 12.4489624 -7.51350403 11.24700928 C-7.5109259 10.13454834 -7.50834778 9.0220874 -7.50569153 7.87591553 C-7.50343567 6.85175537 -7.50117981 5.82759521 -7.49885559 4.7723999 C-6.99105566 -0.11397681 -4.28991764 0.0457332 0 0 Z M1.75993347 9.28216553 C1.75993347 12.91216553 1.75993347 16.54216553 1.75993347 20.28216553 C22.87993347 20.28216553 43.99993347 20.28216553 65.75993347 20.28216553 C65.75993347 16.65216553 65.75993347 13.02216553 65.75993347 9.28216553 C44.63993347 9.28216553 23.51993347 9.28216553 1.75993347 9.28216553 Z " fill="#88A9C3" transform="translate(690.2400665283203,26.71783447265625)"/>
<path d="M0 0 C1 1 1 1 1.35588074 4.2144928 C0.91034698 8.95364014 -0.36120958 10.23693213 -3.6940918 13.56811523 C-4.193246 14.07632309 -4.69240021 14.58453094 -5.2066803 15.10813904 C-6.8540431 16.776043 -8.52533688 18.41733847 -10.19921875 20.05859375 C-11.35426254 21.21327368 -12.50812098 22.36914044 -13.6608429 23.52613831 C-16.07704931 25.94363794 -18.50491741 28.34856557 -20.94213867 30.74487305 C-24.06546408 33.8170682 -27.1613764 36.91524753 -30.2494688 40.02281094 C-32.62754709 42.41118401 -35.01781579 44.78703806 -37.41214943 47.1591053 C-38.55860305 48.29719545 -39.70163734 49.43874079 -40.84116173 50.58376884 C-42.43515888 52.18104722 -44.04439659 53.76117049 -45.65893555 55.33764648 C-46.5716069 56.24030746 -47.48427826 57.14296844 -48.42460632 58.07298279 C-51 60 -51 60 -53.70881653 60.41639709 C-56 60 -56 60 -58 58 C-58.42041016 55.71948242 -58.42041016 55.71948242 -58 53 C-56.49067646 50.94374456 -55.05400168 49.28323321 -53.2734375 47.48828125 C-52.74809418 46.93997147 -52.22275085 46.39166168 -51.68148804 45.82673645 C-49.80015815 43.8720183 -47.8997045 41.93685964 -46 40 C-44.45144395 38.39960715 -42.9036339 36.79849223 -41.35644531 35.19677734 C-37.04397188 30.74613299 -32.69687767 26.33111716 -28.33447266 21.92944336 C-26.5112036 20.08432399 -24.69424087 18.23295388 -22.88330078 16.37573242 C-20.24113346 13.66700162 -17.58010384 10.97817923 -14.9140625 8.29296875 C-14.10772369 7.45879929 -13.30138489 6.62462982 -12.47061157 5.7651825 C-11.70896698 5.00631241 -10.94732239 4.24744232 -10.16259766 3.46557617 C-9.50152008 2.79419113 -8.8404425 2.12280609 -8.15933228 1.43107605 C-5.30803133 -0.45859537 -3.35133086 -0.33377543 0 0 Z " fill="#88A9C3" transform="translate(450,218)"/>
<path d="M0 0 C2.32659912 0.38197327 2.32659912 0.38197327 4.32659912 2.38197327 C4.83913971 6.081441 4.73713474 7.79434672 2.57594299 10.88780212 C1.75607407 11.70942841 0.93620514 12.53105469 0.0914917 13.37757874 C-0.83334518 14.31810089 -1.75818207 15.25862305 -2.71104431 16.22764587 C-3.73296799 17.23551229 -4.75559378 18.24266722 -5.77886963 19.24916077 C-6.82159419 20.29338811 -7.86335439 21.33857923 -8.90419006 22.38468933 C-11.08643656 24.57126451 -13.27888616 26.74689773 -15.47930908 28.91517639 C-18.29824662 31.69430878 -21.09192225 34.49731971 -23.87862682 37.30872917 C-26.02528429 39.46957177 -28.1839179 41.61811531 -30.34646034 43.76305008 C-31.38141128 44.79215405 -32.41280761 45.8248457 -33.44054222 46.86115646 C-34.87862253 48.30723073 -36.33460911 49.73543094 -37.7913208 51.16273499 C-38.61516769 51.97958771 -39.43901459 52.79644043 -40.28782654 53.63804626 C-42.67340088 55.38197327 -42.67340088 55.38197327 -45.35353088 55.77067566 C-47.67340088 55.38197327 -47.67340088 55.38197327 -49.67340088 53.38197327 C-49.49243157 47.88149471 -48.26477239 45.22130129 -44.41656494 41.36463928 C-43.51182434 40.44421341 -42.60708374 39.52378754 -41.67492676 38.57546997 C-40.68031182 37.59491082 -39.68499428 36.6150639 -38.68902588 35.63587952 C-37.67015113 34.61550129 -36.65224125 33.59415878 -35.63525391 32.57189941 C-33.50605517 30.43837829 -31.36669201 28.31578051 -29.21929932 26.20057678 C-26.46874114 23.48987439 -23.74352419 20.75524717 -21.02521133 18.01225376 C-18.92916596 15.90202498 -16.82115122 13.80409632 -14.70922089 11.70977592 C-13.69939096 10.7057907 -12.69311129 9.69822131 -11.69049835 8.68702888 C-10.28844944 7.27698575 -8.86849329 5.88481683 -7.44781494 4.49354553 C-6.64474915 3.69747391 -5.84168335 2.90140228 -5.01428223 2.08120728 C-2.67340088 0.38197327 -2.67340088 0.38197327 0 0 Z " fill="#88A9C3" transform="translate(565.6734008789063,260.61802673339844)"/>
<path d="M0 0 C1 1 1 1 1.36157227 3.72900391 C0.88126206 8.07417349 -0.65629481 9.33571953 -3.78515625 12.3359375 C-4.27906357 12.81898346 -4.77297089 13.30202942 -5.28184509 13.79971313 C-6.86180779 15.33961799 -8.46091153 16.85762946 -10.0625 18.375 C-12.14176913 20.37761553 -14.21340883 22.38804564 -16.28515625 24.3984375 C-16.78996521 24.88551682 -17.29477417 25.37259613 -17.81488037 25.87443542 C-21.1817437 29.14100788 -24.31488948 32.52585605 -27.35229492 36.09667969 C-30.46036932 39.6869224 -33.7920807 43.05732759 -37.125 46.4375 C-38.15947266 47.51547852 -38.15947266 47.51547852 -39.21484375 48.61523438 C-39.88902344 49.29779297 -40.56320312 49.98035156 -41.2578125 50.68359375 C-42.15717529 51.60483032 -42.15717529 51.60483032 -43.07470703 52.54467773 C-45.42471072 54.32103736 -47.07013864 54.79971992 -50 55 C-50.99 54.34 -51.98 53.68 -53 53 C-53.54125977 50.26318359 -53.54125977 50.26318359 -53 47 C-51.17269389 44.65919393 -49.47938271 42.80027876 -47.33984375 40.7890625 C-46.4658065 39.93131729 -46.4658065 39.93131729 -45.57411194 39.0562439 C-43.70890136 37.23114353 -41.82432853 35.42771777 -39.9375 33.625 C-37.48333375 31.24725664 -35.03676284 28.86175982 -32.58984375 26.4765625 C-32.00030411 25.90488846 -31.41076447 25.33321442 -30.80335999 24.74421692 C-27.17333079 21.20814028 -23.73918837 17.58032012 -20.46557617 13.70800781 C-18.01528854 10.85240023 -15.3570114 8.21155538 -12.6875 5.5625 C-11.90149414 4.77069336 -11.90149414 4.77069336 -11.09960938 3.96289062 C-7.02145682 -0.10481851 -5.66333405 -1.45213694 0 0 Z " fill="#88A9C3" transform="translate(533,134)"/>
<path d="M0 0 C3.27705943 1.20565005 6.53025045 1.42492471 9.99609375 1.734375 C10.62109375 5.109375 10.62109375 5.109375 10.99609375 8.734375 C8.46294599 11.26752276 7.50782999 11.03191021 3.99609375 11.046875 C-1.72193418 10.96378609 -6.65752546 9.68273069 -12.00390625 7.734375 C-13.04298834 11.54657921 -13.04298834 11.54657921 -11.75390625 15.171875 C-8.99817165 17.7397186 -6.67232823 18.96414407 -3.31640625 20.609375 C1.73116668 23.18685905 1.73116668 23.18685905 2.93359375 25.671875 C3.18359375 27.609375 3.18359375 27.609375 2.99609375 30.734375 C-0.00390625 32.734375 -0.00390625 32.734375 -2.84375 32.55859375 C-10.54574841 30.5497907 -17.63593448 25.35678382 -22.00390625 18.734375 C-24.193388 14.0568458 -24.25401604 10.73481418 -23.00390625 5.734375 C-17.67317684 -4.00799254 -9.47873202 -4.04324183 0 0 Z " fill="#88A9C3" transform="translate(828.00390625,225.265625)"/>
<path d="M0 0 C4.03843343 2.60254599 6.29289779 5.25369336 7.8125 9.8125 C8.28855145 14.76343505 7.78493438 18.10031386 5.140625 22.234375 C1.85476343 26.13875168 -1.75757167 27.63689477 -6.75 28.25 C-11.88592623 27.59633666 -14.97780262 26.12028096 -18.5 22.3125 C-21.33147449 18.11772298 -21.52513378 14.79259828 -21.1875 9.8125 C-19.44333626 5.13079732 -17.31714161 2.60000809 -13.1875 -0.1875 C-8.48227445 -1.75590852 -4.66101184 -1.73645539 0 0 Z M-11.1875 10.8125 C-11.52083333 13.3125 -11.52083333 13.3125 -11.1875 15.8125 C-9.36046773 18.0616908 -9.36046773 18.0616908 -6.6875 18.0625 C-4.01453227 18.0616908 -4.01453227 18.0616908 -2.1875 15.8125 C-1.85416667 13.3125 -1.85416667 13.3125 -2.1875 10.8125 C-4.01453227 8.5633092 -4.01453227 8.5633092 -6.6875 8.5625 C-9.36046773 8.5633092 -9.36046773 8.5633092 -11.1875 10.8125 Z " fill="#88A9C3" transform="translate(964.1875,28.1875)"/>
</svg>
